<?xml version="1.0" standalone="no"?>
<!DOCTYPE svg PUBLIC "-//W3C//DTD SVG 20010904//EN"
 "http://www.w3.org/TR/2001/REC-SVG-20010904/DTD/svg10.dtd">
<svg version="1.0" xmlns="http://www.w3.org/2000/svg"
 width="404.000000pt" height="103.000000pt" viewBox="0 0 404.000000 103.000000"
 preserveAspectRatio="xMidYMid meet">

<g transform="translate(0.000000,103.000000) scale(0.100000,-0.100000)"
fill="#000000" stroke="none">
<path d="M419 1000 c-38 -20 -104 -88 -95 -98 3 -3 14 2 24 11 52 48 146 60
201 26 49 -29 141 -129 228 -246 43 -56 79 -101 81 -98 13 12 -136 247 -207
327 -83 91 -158 117 -232 78z"/>
<path d="M213 855 c-154 -24 -211 -73 -201 -171 3 -27 11 -62 19 -79 12 -29
13 -29 19 37 10 103 37 131 155 162 65 17 282 45 355 47 37 1 41 2 20 9 -39
12 -276 9 -367 -5z"/>
<path d="M811 812 c73 -38 103 -82 96 -142 -8 -67 -41 -159 -108 -299 -32 -68
-52 -118 -44 -111 24 20 114 166 156 253 81 170 74 257 -25 303 -28 13 -68 24
-90 24 l-38 0 53 -28z"/>
<path d="M1450 729 l0 -61 -42 2 c-80 3 -97 0 -118 -22 -17 -19 -20 -35 -20
-125 0 -90 3 -106 20 -123 23 -23 78 -27 130 -8 26 9 35 9 38 0 2 -7 12 -12
23 -12 18 0 19 10 19 205 l0 205 -25 0 c-24 0 -25 -3 -25 -61z m-5 -194 l0
-90 -43 -15 c-66 -23 -76 -11 -80 90 -4 102 3 112 72 108 l51 -3 0 -90z"/>
<path d="M2120 750 c0 -36 3 -40 25 -40 23 0 25 4 25 40 0 36 -2 40 -25 40
-22 0 -25 -4 -25 -40z"/>
<path d="M3700 730 l0 -60 -62 2 c-35 1 -73 -4 -85 -10 -31 -17 -46 -82 -40
-171 3 -62 8 -78 27 -93 25 -20 84 -24 126 -8 19 8 30 8 38 0 5 -5 18 -10 28
-10 17 0 18 14 18 205 l0 205 -25 0 c-24 0 -25 -3 -25 -60z m-16 -106 c13 -5
16 -23 16 -89 l0 -83 -34 -16 c-37 -17 -55 -20 -80 -10 -13 5 -16 23 -16 93 0
54 5 92 12 99 13 13 75 16 102 6z"/>
<path d="M154 678 c-104 -158 -158 -296 -146 -377 6 -41 53 -88 100 -100 115
-29 134 -22 49 19 -69 34 -101 80 -93 137 9 66 42 158 107 292 33 68 57 126
55 128 -2 3 -35 -42 -72 -99z"/>
<path d="M1610 671 c-25 -3 -44 -9 -42 -13 1 -5 2 -14 2 -20 0 -9 17 -12 60
-10 72 4 90 -7 90 -54 l0 -34 -60 0 c-51 0 -65 -4 -85 -25 -35 -34 -30 -101 9
-127 17 -12 95 -9 119 3 16 9 22 9 25 0 2 -6 12 -11 23 -11 18 0 19 8 19 125
0 112 -2 127 -20 145 -11 11 -31 20 -44 20 -13 0 -30 2 -38 3 -7 2 -33 1 -58
-2z m108 -203 c-3 -29 -8 -34 -41 -42 -42 -11 -70 -1 -75 28 -6 30 18 46 70
46 l49 0 -3 -32z"/>
<path d="M2521 670 c-56 -13 -72 -37 -78 -121 -7 -90 11 -143 54 -160 26 -10
158 -8 169 3 2 3 2 12 -2 21 -5 14 -16 15 -63 10 -75 -7 -101 6 -101 52 l0 35
85 0 85 0 0 55 c0 46 -4 60 -25 80 -13 14 -33 25 -44 25 -11 0 -25 2 -33 4 -7
2 -28 0 -47 -4z m87 -52 c7 -7 12 -25 12 -40 0 -28 -1 -28 -60 -28 -59 0 -60
0 -60 28 0 15 5 33 12 40 16 16 80 16 96 0z"/>
<path d="M3040 669 c-19 -4 -45 -19 -57 -34 -20 -23 -23 -37 -23 -111 0 -81 1
-87 29 -115 26 -25 37 -29 88 -29 76 0 103 8 103 31 0 16 -7 17 -69 12 -63 -5
-69 -4 -85 18 -9 13 -16 34 -16 46 0 22 3 23 90 23 l90 0 0 45 c0 24 -5 55
-11 68 -18 41 -75 59 -139 46z m90 -58 c5 -11 10 -29 10 -40 0 -19 -6 -21 -65
-21 -71 0 -82 12 -49 58 20 30 88 31 104 3z"/>
<path d="M3370 669 c-19 -3 -47 -10 -62 -14 -19 -5 -28 -3 -28 5 0 6 -10 10
-22 8 -23 -3 -23 -5 -23 -143 l0 -140 25 0 c25 0 25 1 30 109 l5 109 40 14
c68 24 69 22 75 -112 5 -120 5 -120 30 -120 l25 0 3 119 c4 156 -12 182 -98
165z"/>
<path d="M3876 669 c-22 -3 -47 -16 -57 -28 -35 -44 -35 -189 1 -233 30 -38
205 -38 198 0 -3 14 -14 16 -65 14 -79 -5 -103 8 -103 53 l0 35 85 0 85 0 0
54 c0 36 -6 61 -17 75 -22 27 -75 39 -127 30z m92 -72 c7 -15 10 -32 7 -37 -3
-6 -33 -10 -66 -10 -58 0 -59 0 -59 28 0 39 18 53 65 50 32 -2 42 -8 53 -31z"/>
<path d="M1800 663 c1 -5 22 -69 48 -143 l47 -135 35 0 35 0 47 135 c26 74 48
138 48 143 0 4 -11 7 -24 7 -22 0 -28 -10 -63 -115 -20 -63 -40 -115 -43 -115
-3 0 -23 52 -43 115 -35 105 -41 115 -63 115 -13 0 -24 -3 -24 -7z"/>
<path d="M2120 525 l0 -145 25 0 25 0 0 145 0 145 -25 0 -25 0 0 -145z"/>
<path d="M2280 525 l0 -145 25 0 c25 0 25 0 25 100 l0 99 45 27 c48 27 50 31
36 53 -8 12 -15 11 -45 -7 -35 -21 -36 -21 -36 -2 0 15 -7 20 -25 20 l-25 0 0
-145z"/>
<path d="M2720 650 c0 -18 7 -20 70 -20 39 0 70 -3 70 -8 0 -4 -31 -49 -70
-101 -40 -54 -70 -105 -70 -118 0 -23 2 -23 105 -23 98 0 105 1 105 20 0 18
-7 20 -75 20 -41 0 -75 2 -75 5 0 3 34 50 75 106 102 137 102 139 -30 139 -98
0 -105 -1 -105 -20z"/>
<path d="M920 394 c0 -131 -53 -164 -320 -200 -58 -7 -131 -14 -162 -14 -32 0
-58 -4 -58 -10 0 -16 306 -12 393 4 85 17 148 45 171 78 20 29 21 117 2 163
-8 19 -17 35 -20 35 -4 0 -6 -25 -6 -56z"/>
<path d="M147 363 c48 -89 126 -205 172 -256 75 -84 163 -117 224 -86 25 13
107 90 107 100 0 4 -24 -6 -52 -21 -75 -40 -109 -45 -155 -23 -53 25 -148 123
-239 245 -42 57 -80 105 -85 106 -6 2 7 -27 28 -65z"/>
<path d="M3911 292 c-1 -50 1 -53 22 -50 18 2 22 9 22 38 0 24 -5 35 -15 35
-8 0 -18 7 -22 15 -4 8 -7 -9 -7 -38z m39 -17 c0 -16 -6 -25 -15 -25 -9 0 -15
9 -15 25 0 16 6 25 15 25 9 0 15 -9 15 -25z"/>
<path d="M3572 311 c-21 -13 -11 -65 13 -69 18 -2 18 -2 3 8 -22 13 -24 50 -3
50 8 0 15 5 15 10 0 12 -10 13 -28 1z"/>
<path d="M3642 311 c-8 -5 -12 -21 -10 -37 2 -23 8 -29 28 -29 20 0 26 6 28
29 3 25 -10 46 -28 46 -3 0 -11 -4 -18 -9z m38 -30 c0 -11 -5 -23 -11 -27 -15
-9 -33 12 -26 30 9 23 37 20 37 -3z"/>
<path d="M3738 312 c-14 -2 -18 -13 -17 -40 1 -36 2 -36 8 -7 9 43 39 45 44 3
l4 -33 1 33 c1 20 7 32 16 32 9 0 16 -13 19 -32 4 -28 4 -27 3 6 -1 36 -3 39
-31 40 -16 1 -38 1 -47 -2z"/>
<path d="M4001 273 c2 -35 2 -35 6 -8 3 16 10 33 16 37 8 5 6 8 -5 8 -14 0
-18 -8 -17 -37z"/>
<path d="M3515 250 c3 -5 8 -10 11 -10 2 0 4 5 4 10 0 6 -5 10 -11 10 -5 0 -7
-4 -4 -10z"/>
</g>
</svg>
